<?xml version="1.0" encoding="UTF-8"?>
<svg id="Layer_1" data-name="Layer 1" xmlns="http://www.w3.org/2000/svg" viewBox="0 0 6132.8 2000">
  <defs>
    <style>
      .cls-1 {
        fill-rule: evenodd;
      }
    </style>
  </defs>
  <g>
    <path class="cls-1" d="M558.05,1446.7h-.24c-160.96,0-295.03-78.09-295.03-239.05s132.19-295.03,295.03-295.03l122.3.1,172.73,172.87-.04,66.06v.04l.04,122.05-142.26,142.38c-19.51,19.53-45.98,30.51-73.59,30.53l-78.94.06ZM261.74,970.7c61.66-146.45,206.57-249.38,375.34-249.38l168.73.14,238.33,238.52v294.95l-198.89,199.05c-25.25,25.27-59.5,39.48-95.23,39.51h-.48c7.25-5.41,14.15-11.37,20.62-17.85l154.59-154.72c7.9-7.9,12.33-18.61,12.32-29.78l-.04-139.47.04-83.49c0-11.17-4.43-21.89-12.32-29.79l-197.39-197.55c-7.89-7.9-18.6-12.34-29.76-12.35l-139.79-.11c-119.71,0-226.54,55.58-296.07,142.32ZM250.09,825.83c83.76-171.73,260.1-290.16,463.89-290.16l213.82.17,302,302.24-.07,213.39v.03l.06,193.19-262.55,262.77c-25.25,25.27-59.5,39.48-95.23,39.51h-10.17c15.54-9.23,30.01-20.44,43.01-33.44l211.21-211.38c7.89-7.9,12.33-18.6,12.33-29.77v-329.83c0-11.16-4.44-21.87-12.33-29.77l-262.97-263.18c-7.89-7.9-18.6-12.33-29.76-12.34l-186.23-.16c-157.08,0-297.04,73.88-387,188.75ZM187.6,763.36c82.19-265.32,329.67-458.27,621.87-458.27l269.82.21,381.08,381.39-.09,269.28v.03l.09,269.28-305.79,306.04c-48.21,48.24-113.6,75.38-181.8,75.43h-.33c19.89-10.28,38.26-23.63,54.37-39.76l274.88-275.11c7.9-7.9,12.34-18.61,12.33-29.78l-.07-210.62.07-230.82c.01-11.17-4.42-21.88-12.33-29.78l-326.64-326.9c-7.89-7.9-18.59-12.35-29.76-12.35l-231.28-.19h-.03c-226.8,0-424.36,126.08-526.38,311.92ZM809.48,1691.11h.59s162.77-.13,162.77-.13c90.53-.07,177.33-36.09,241.32-100.13l318.13-318.38c7.89-7.9,12.33-18.61,12.31-29.78l-.08-286.71.08-286.71c.01-11.17-4.43-21.88-12.31-29.78l-405.73-406.06c-7.9-7.9-18.6-12.35-29.76-12.35l-287.28-.23h-.03c-405.74,0-735.13,329.38-735.13,735.12,0,63.11,7.98,124.38,22.97,182.85,81.37,317.39,369.54,552.28,712.16,552.28Z"/>
    <path class="cls-1" d="M839.24,620.21l42.88-65.26-168.16-.14c-133.54.01-254.84,52.83-344.13,138.69,77.77-47.93,169.31-75.56,267.25-75.56l186.24.15c5.42.01,10.77.73,15.91,2.12ZM713.56,811.47l46.6-70.91-123.07-.1c-113.88,0-216.36,49.18-287.35,127.43,60.6-37.21,131.85-58.66,208.08-58.66l139.81.11c5.43,0,10.78.73,15.93,2.12ZM961.22,434.6l72.41-110.19-224.16-.18c-219.9,0-413.7,112.59-526.86,283.22,111.55-108.4,263.73-175.16,431.38-175.16l231.33.19c5.42.01,10.77.73,15.91,2.12Z"/>
  </g>
  <g>
    <g>
      <path d="M1863.19,442.7h233.87c49.87,0,90.57,13.56,122.08,40.69,37.92,30.8,57.7,74.74,59.35,131.82-1.1,83.92-39.62,141-115.59,171.24l138.54,274.23h-107.67l-123.88-264.1h-116.07v264.1h-90.62V442.7ZM1953.81,713.58h137.47c34.03-.56,59.54-10.76,76.56-30.6,16.74-18.42,25.11-41.09,25.11-68-.55-32.29-10.56-55.67-30.05-70.12-15.37-12.75-37.59-19.13-66.68-19.13h-142.41v187.85Z"/>
      <path d="M2392.58,442.7h382.39v88.12h-291.76v176.83h249.05v83h-249.05v181.91h291.76v88.12h-382.39V442.7Z"/>
      <path d="M3279.1,888.03c-13.15,57.27-38.2,101.28-75.16,132.03-38.06,30.47-83.1,45.7-135.12,45.7-47.06-1.13-86.32-12.99-117.78-35.6-32.01-21.76-55.27-46.9-69.76-75.45-4.38-9.32-8.35-18.23-11.9-26.7-3.29-8.76-6.03-19.78-8.21-33.06-4.11-24.86-6.15-72.62-6.15-143.26s2.05-119.81,6.16-144.11c4.38-24.3,11.08-43.94,20.11-58.92,14.5-28.54,37.77-53.97,69.8-76.29,31.47-22.6,70.75-34.19,117.83-34.76,57.75.57,104.82,18.2,141.23,52.9,36.4,34.99,59.39,78.29,68.97,129.92h-96.21c-7.4-24.92-20.84-46.15-40.3-63.71-20.29-16.7-44.95-25.34-74.01-25.91-21.38.57-39.75,4.95-55.1,13.17-15.63,8.5-28.24,19.11-37.83,31.85-11.79,13.31-19.6,30.44-23.44,51.4-4.38,22.09-6.58,63.57-6.58,124.45s2.19,102.08,6.58,123.6c3.83,21.52,11.65,38.94,23.44,52.25,9.6,12.74,22.21,23.08,37.85,31.01,15.35,9.34,33.73,14.01,55.12,14.01,51.01,0,89.13-28.17,114.36-84.53h96.11Z"/>
      <path d="M3347.1,442.7h90.62v398.77c.54,42.14,12.33,74.24,35.36,96.29,22.48,23.19,51.39,34.79,86.75,34.79s64.54-11.6,87.57-34.79c22.48-22.05,33.99-54.15,34.54-96.29v-398.77h90.62v408.6c-1.1,65-21.5,116.56-61.19,154.71-39.97,39.28-90.49,59.19-151.54,59.76-59.96-.57-110.07-20.46-150.31-59.7-41.07-38.1-61.88-89.61-62.43-154.53v-408.84Z"/>
      <path d="M3904.89,442.7h233.87c49.87,0,90.57,13.56,122.08,40.69,37.92,30.8,57.7,74.74,59.35,131.82-1.1,83.92-39.62,141-115.59,171.24l138.54,274.23h-107.67l-123.88-264.1h-116.07v264.1h-90.62V442.7ZM3995.51,713.58h137.47c34.03-.56,59.54-10.76,76.56-30.6,16.74-18.42,25.11-41.09,25.11-68-.55-32.29-10.56-55.67-30.05-70.12-15.37-12.75-37.59-19.13-66.68-19.13h-142.41v187.85Z"/>
      <path d="M4441.69,910.96c47.66,40.5,104.36,61.03,170.1,61.59,77.79-1.13,117.24-29.83,118.33-86.11.56-46.09-25.44-73.81-78.02-83.15-24.09-3.39-50.51-7.21-79.25-11.46-51.47-8.76-90.62-28.42-117.44-58.96-27.66-31.39-41.48-69.57-41.48-114.54,0-54.02,17.37-97.57,52.09-130.66,33.63-32.81,81.35-49.49,143.15-50.06,74.38,1.7,139.05,22.97,194.02,63.84l-50.52,76.94c-44.92-30.58-94.35-46.43-148.3-47.57-27.93,0-51.21,7.21-69.83,21.64-19.44,14.99-29.44,37.33-29.99,67.03,0,17.81,6.7,33.93,20.12,48.36,13.42,14.71,34.91,24.89,64.47,30.54,16.42,2.83,38.87,6.08,67.35,9.76,56.12,7.92,97.59,28.71,124.42,62.36,26.56,33.09,39.83,71.56,39.83,115.39-3.01,118.22-73.02,178.18-210.04,179.87-88.61,0-164.78-28.11-228.5-84.35l59.48-70.45Z"/>
      <path d="M4932.31,442.7h90.62v617.98h-90.62V442.7Z"/>
      <path d="M5093.8,442.7h95.93l135.7,470.74h1.64l136.11-470.74h95.93l-197.6,617.98h-70.51l-197.2-617.98Z"/>
      <path d="M5638.87,442.7h382.39v88.12h-291.76v176.83h249.05v83h-249.05v181.91h291.76v88.12h-382.39V442.7Z"/>
    </g>
    <g>
      <path d="M1873.62,1445.59c21.97,15.79,48.12,23.8,78.43,24.02,35.87-.44,54.05-11.63,54.56-33.58.26-17.97-11.73-28.78-35.97-32.42-11.11-1.32-23.29-2.81-36.54-4.47-23.73-3.42-41.78-11.08-54.15-22.99-12.75-12.24-19.12-27.13-19.12-44.66,0-21.06,8.01-38.05,24.02-50.95,15.51-12.79,37.51-19.3,66-19.52,34.29.66,64.11,8.96,89.45,24.89l-23.29,30c-20.71-11.92-43.5-18.11-68.37-18.55-12.88,0-23.61,2.81-32.2,8.44-8.96,5.85-13.58,14.56-13.83,26.14,0,6.95,3.09,13.23,9.28,18.86,6.19,5.74,16.09,9.7,29.73,11.91,7.57,1.1,17.92,2.37,31.05,3.8,25.88,3.09,45,11.19,57.37,24.32,12.24,12.9,18.37,27.9,18.37,44.99-1.39,46.1-33.67,69.48-96.84,70.14-40.86,0-75.97-10.96-105.35-32.89l27.42-27.47Z"/>
      <path d="M2370.12,1450.07h-104.67l-21.2,53.9h-44.29l100.32-240.97h35.01l100.31,240.97h-44.1l-21.39-53.9ZM2358.19,1417.71l-39.94-105.42h-.76l-39.94,105.42h80.63Z"/>
      <path d="M2601.64,1262.99h176.3v34.36h-134.52v71.27h114.83v32.36h-114.83v102.98h-41.78v-240.97Z"/>
      <path d="M2945.48,1262.99h176.3v34.36h-134.52v68.95h114.83v32.36h-114.83v70.94h134.52v34.36h-176.3v-240.97Z"/>
      <path d="M3386.41,1371.43h98.1v49.02c-.51,24.1-9.97,44.29-28.38,60.58-18.54,16.18-41.88,24.48-70,24.92-21.69-.44-39.79-5.07-54.3-13.88-14.76-8.48-25.48-18.29-32.17-29.42-2.02-3.64-3.85-7.11-5.48-10.41-1.51-3.41-2.78-7.71-3.79-12.89-1.89-9.69-2.84-28.32-2.84-55.86s.94-46.72,2.84-56.19c2.02-9.48,5.11-17.13,9.27-22.97,6.68-11.13,17.4-21.04,32.17-29.75,14.5-8.81,32.6-13.33,54.3-13.55,26.61.22,48.31,7.11,65.08,20.66,16.77,13.66,27.37,30.57,31.78,50.73h-44.33c-3.41-9.74-9.6-18.05-18.57-24.91-9.35-6.53-20.72-9.91-34.1-10.13-9.85.22-18.31,1.93-25.39,5.13-7.2,3.31-13.01,7.45-17.43,12.42-5.44,5.19-9.04,11.87-10.8,20.04-2.02,8.61-3.03,24.79-3.03,48.53s1.01,39.81,3.03,48.2c1.77,8.39,5.37,15.18,10.81,20.37,4.42,4.97,10.24,9,17.44,12.09,7.08,3.64,15.55,5.46,25.41,5.46,16.31,0,29.77-4.86,40.39-14.59,10.62-9.28,16.05-21.5,16.31-36.64v-12.6h-56.31v-34.35Z"/>
      <path d="M3664.81,1262.99h41.78v155.5c.25,16.43,5.69,28.95,16.3,37.55,10.36,9.04,23.7,13.57,40,13.57s29.76-4.52,40.38-13.57c10.36-8.6,15.67-21.12,15.92-37.55v-155.5h41.78v159.33c-.51,25.34-9.91,45.45-28.21,60.33-18.43,15.32-41.72,23.08-69.87,23.3-27.65-.22-50.75-7.98-69.3-23.28-18.94-14.86-28.53-34.94-28.78-60.26v-159.42Z"/>
      <path d="M4182.28,1450.07h-104.67l-21.2,53.9h-44.29l100.32-240.97h35.01l100.31,240.97h-44.1l-21.39-53.9ZM4170.35,1417.71l-39.94-105.42h-.76l-39.94,105.42h80.63Z"/>
      <path d="M4413.8,1262.99h107.83c22.99,0,41.76,5.29,56.28,15.87,17.48,12.01,26.61,29.15,27.36,51.4-.51,32.72-18.27,54.98-53.29,66.77l63.88,106.93h-49.64l-57.12-102.98h-53.51v102.98h-41.78v-240.97ZM4455.59,1368.62h63.38c15.69-.22,27.45-4.2,35.3-11.93,7.72-7.18,11.58-16.02,11.58-26.52-.25-12.59-4.87-21.71-13.85-27.34-7.08-4.97-17.33-7.46-30.74-7.46h-65.66v73.25Z"/>
      <path d="M4786.76,1262.99h96.57c37.36.22,65.39,13.77,84.07,40.66,6.68,9.04,10.9,18.51,12.67,28.43,1.39,9.92,2.08,27.05,2.08,51.4,0,25.89-1.07,43.96-3.22,54.21-1.01,5.18-2.53,9.81-4.54,13.88-2.15,3.97-4.73,8.1-7.76,12.4-8.08,11.35-19.31,20.72-33.7,28.1-14.26,7.93-31.74,11.9-52.44,11.9h-93.72v-240.97ZM4828.54,1469.6h50.03c23.5,0,40.56-7.01,51.17-21.03,4.68-5.19,7.64-11.76,8.91-19.71,1.14-7.84,1.71-22.52,1.71-44.06s-.57-35.99-1.71-45.05c-1.51-9.05-5.11-16.4-10.8-22.03-11.63-14.02-28.05-20.81-49.28-20.37h-50.03v172.25Z"/>
      <path d="M5167.72,1262.99h41.78v240.97h-41.78v-240.97Z"/>
      <path d="M5399.77,1262.99h39.39l124.98,171.31h.76v-171.31h41.78v240.97h-39.58l-124.79-171.31h-.76v171.31h-41.78v-240.97Z"/>
      <path d="M5891.9,1371.43h98.1v49.02c-.51,24.1-9.97,44.29-28.38,60.58-18.54,16.18-41.88,24.48-70,24.92-21.69-.44-39.79-5.07-54.3-13.88-14.76-8.48-25.48-18.29-32.17-29.42-2.02-3.64-3.85-7.11-5.48-10.41-1.51-3.41-2.78-7.71-3.79-12.89-1.89-9.69-2.84-28.32-2.84-55.86s.94-46.72,2.84-56.19c2.02-9.48,5.11-17.13,9.27-22.97,6.68-11.13,17.4-21.04,32.17-29.75,14.5-8.81,32.6-13.33,54.3-13.55,26.61.22,48.31,7.11,65.08,20.66,16.77,13.66,27.37,30.57,31.78,50.73h-44.33c-3.41-9.74-9.6-18.05-18.57-24.91-9.35-6.53-20.72-9.91-34.1-10.13-9.85.22-18.31,1.93-25.39,5.13-7.2,3.31-13.01,7.45-17.43,12.42-5.44,5.19-9.04,11.87-10.8,20.04-2.02,8.61-3.03,24.79-3.03,48.53s1.01,39.81,3.03,48.2c1.77,8.39,5.37,15.18,10.81,20.37,4.42,4.97,10.24,9,17.44,12.09,7.08,3.64,15.55,5.46,25.41,5.46,16.31,0,29.77-4.86,40.39-14.59,10.62-9.28,16.05-21.5,16.31-36.64v-12.6h-56.31v-34.35Z"/>
    </g>
  </g>
</svg>