<?xml version="1.0" encoding="UTF-8"?>
<svg version="1.1" xmlns="http://www.w3.org/2000/svg" width="32" height="32">
<path d="M0 0 C10.56 0 21.12 0 32 0 C32 10.56 32 21.12 32 32 C21.44 32 10.88 32 0 32 C0 21.44 0 10.88 0 0 Z " fill="#FCFCFC" transform="translate(0,0)"/>
<path d="M0 0 C0.268125 0.763125 0.53625 1.52625 0.8125 2.3125 C1.77258128 4.99379205 1.77258128 4.99379205 3.5625 6.375 C5.48631737 8.54975007 5.31161408 9.83287606 5.1875 12.6875 C5.16042969 13.49574219 5.13335938 14.30398437 5.10546875 15.13671875 C5.07066406 15.75160156 5.03585938 16.36648437 5 17 C4.01 17 3.02 17 2 17 C2.33 16.67 2.66 16.34 3 16 C3.50070321 12.62642666 3.50070321 12.62642666 3 9 C0.64167228 6.52791204 0.64167228 6.52791204 -2 5 C-1.34 5.70125 -0.68 6.4025 0 7.125 C2.30233203 10.43460229 2.36630156 12.06225823 2 16 C1.67 16 1.34 16 1 16 C0.731875 15.05125 0.46375 14.1025 0.1875 13.125 C-0.74986588 9.74732727 -0.74986588 9.74732727 -4 8 C-3.484375 8.5775 -2.96875 9.155 -2.4375 9.75 C-1 12 -1 12 -1.3125 14.25 C-1.539375 14.8275 -1.76625 15.405 -2 16 C-2.66 14.68 -3.32 13.36 -4 12 C-5.98 12 -7.96 12 -10 12 C-10.38218767 13.65614657 -10.71395102 15.32457024 -11 17 C-9.95562735 18.27379279 -9.95562735 18.27379279 -7.625 18.0625 C-6.325625 18.0315625 -6.325625 18.0315625 -5 18 C-2 18 -2 18 1 19 C1 19.66 1 20.32 1 21 C1.66 21.33 2.32 21.66 3 22 C1.45016739 23.54983261 -0.03668378 23.28132961 -2.1875 23.375 C-5.68296861 23.3416038 -7.70086933 22.95827128 -10.4375 20.75 C-13.77862684 17.16440047 -14.77201702 15.51038727 -15.5 10.6875 C-14.91964111 6.40735318 -13.83471186 4.42928876 -10.93359375 1.3125 C-7.50370784 -1.01566498 -3.96573748 -0.55520325 0 0 Z " fill="#404040" transform="translate(19,5)"/>
<path d="M0 0 C4.04548678 -0.57792668 7.50729158 -0.83559221 11.15625 1.20703125 C14.02197682 3.71454222 15.70491802 5.77398198 16.60546875 9.515625 C16.85751931 14.06615945 16.42643867 16.37861793 13.8125 20.1875 C11 22 11 22 8.375 21.9375 C6 21 6 21 3 19 C2.67 19.33 2.34 19.66 2 20 C-0.4375 20.1875 -0.4375 20.1875 -3 20 C-3.66 19.34 -4.32 18.68 -5 18 C-4.44444444 13.44444444 -4.44444444 13.44444444 -3 12 C-1.00043389 11.95834237 1.00043389 11.95834237 3 12 C3.33 12 3.66 12 4 12 C3.67 11.01 3.34 10.02 3 9 C4.32 9.66 5.64 10.32 7 11 C6.34 10.01 5.68 9.02 5 8 C5 7.34 5 6.68 5 6 C7.46800047 7.15173355 9.04783565 8.04783565 11 10 C11.125 13.5625 11.125 13.5625 11 17 C11 17.33 11 17.66 11 18 C11.23342521 14.96547223 11.35679318 12.02749505 11 9 C9.10415891 6.68622853 9.10415891 6.68622853 7 5 C7 3.68 7 2.36 7 1 C4.69 1 2.38 1 0 1 C0 0.67 0 0.34 0 0 Z " fill="#6A6A6A" transform="translate(12,4)"/>
<path d="M0 0 C4.04548678 -0.57792668 7.50729158 -0.83559221 11.15625 1.20703125 C14.05857731 3.74656764 15.72975802 5.77465625 16.5703125 9.5859375 C16.68886275 12.28097992 16.74069444 14.40075325 16 17 C13.95703125 18.796875 13.95703125 18.796875 12 20 C11.97421875 19.25234375 11.9484375 18.5046875 11.921875 17.734375 C11.77470151 11.66532637 11.77470151 11.66532637 8.9375 6.5625 C7.9784375 5.7890625 7.9784375 5.7890625 7 5 C7 3.68 7 2.36 7 1 C4.69 1 2.38 1 0 1 C0 0.67 0 0.34 0 0 Z " fill="#494949" transform="translate(12,4)"/>
<path d="M0 0 C2.475 0.495 2.475 0.495 5 1 C4.814375 1.721875 4.62875 2.44375 4.4375 3.1875 C3.98004693 6.12826973 4.26483643 8.14103058 5 11 C5.763125 11 6.52625 11 7.3125 11 C13 11 13 11 16 12 C16 12.66 16 13.32 16 14 C16.66 14.33 17.32 14.66 18 15 C16.45016739 16.54983261 14.96331622 16.28132961 12.8125 16.375 C9.31703139 16.3416038 7.29913067 15.95827128 4.5625 13.75 C1.00511289 9.93231628 0.05021815 8.50654463 -0.125 3.25 C-0.08375 2.1775 -0.0425 1.105 0 0 Z " fill="#222222" transform="translate(4,12)"/>
<path d="M0 0 C3 0.125 3 0.125 4 1.125 C4.1875 3.5625 4.1875 3.5625 4 6.125 C2 8.125 2 8.125 -0.5 8.375 C-3 8.125 -3 8.125 -5 6.125 C-4.27477017 0.17811542 -4.27477017 0.17811542 0 0 Z " fill="#ECECEC" transform="translate(12,15.875)"/>
<path d="M0 0 C1.9375 1.125 1.9375 1.125 3 3 C3.1875 6.1875 3.1875 6.1875 3 9 C2.67 9 2.34 9 2 9 C1.731875 8.05125 1.46375 7.1025 1.1875 6.125 C0.25013412 2.74732727 0.25013412 2.74732727 -3 1 C-2.484375 1.5775 -1.96875 2.155 -1.4375 2.75 C0 5 0 5 -0.3125 7.25 C-0.539375 7.8275 -0.76625 8.405 -1 9 C-1.66 7.68 -2.32 6.36 -3 5 C-5.31 5 -7.62 5 -10 5 C-10 4.01 -10 3.02 -10 2 C-6.30513897 -0.46324069 -4.36706908 -0.38991688 0 0 Z " fill="#3F3F3F" transform="translate(18,12)"/>
<path d="M0 0 C2.31 0 4.62 0 7 0 C7.268125 0.763125 7.53625 1.52625 7.8125 2.3125 C8.77258128 4.99379205 8.77258128 4.99379205 10.5625 6.375 C12.48631737 8.54975007 12.31161408 9.83287606 12.1875 12.6875 C12.16042969 13.49574219 12.13335937 14.30398437 12.10546875 15.13671875 C12.07066406 15.75160156 12.03585938 16.36648437 12 17 C11.01 17 10.02 17 9 17 C9.33 16.67 9.66 16.34 10 16 C10.47474346 11.01335121 10.47474346 11.01335121 8.375 6.625 C5.56154387 4.7000037 3.3666837 4.30606215 0 4 C0 2.68 0 1.36 0 0 Z " fill="#2C2C2C" transform="translate(12,5)"/>
<path d="M0 0 C2.89104992 1.29598789 5.03018393 2.49296136 7 5 C7.29296875 7.48046875 7.29296875 7.48046875 7.1875 10.1875 C7.16042969 11.08855469 7.13335938 11.98960938 7.10546875 12.91796875 C7.07066406 13.60503906 7.03585938 14.29210938 7 15 C6.01 15.495 6.01 15.495 5 16 C4.97421875 15.39671875 4.9484375 14.7934375 4.921875 14.171875 C4.64110955 8.94728665 4.64110955 8.94728665 1.9375 4.625 C1.298125 4.08875 0.65875 3.5525 0 3 C0 2.01 0 1.02 0 0 Z " fill="#EAEAEA" transform="translate(19,6)"/>
<path d="M0 0 C0.66 0.33 1.32 0.66 2 1 C2.99 1.33 3.98 1.66 5 2 C5 2.66 5 3.32 5 4 C5.66 4.33 6.32 4.66 7 5 C6 6 6 6 3.93359375 6.09765625 C3.10988281 6.08605469 2.28617188 6.07445312 1.4375 6.0625 C0.61121094 6.05347656 -0.21507812 6.04445313 -1.06640625 6.03515625 C-1.70449219 6.02355469 -2.34257812 6.01195312 -3 6 C-3.33 4.68 -3.66 3.36 -4 2 C-2.125 0.9375 -2.125 0.9375 0 0 Z " fill="#2C2C2C" transform="translate(15,22)"/>
<path d="M0 0 C2.46800047 1.15173355 4.04783565 2.04783565 6 4 C6.125 7.625 6.125 7.625 6 11 C5.01 11.495 5.01 11.495 4 12 C3.896875 10.906875 3.79375 9.81375 3.6875 8.6875 C3.00272798 5.01463192 2.72080696 4.24762314 0 2 C0 1.34 0 0.68 0 0 Z " fill="#CECECE" transform="translate(17,10)"/>
<path d="M0 0 C3.875 1.875 3.875 1.875 5 3 C5.04063832 4.66617115 5.042721 6.33388095 5 8 C4.01 8.495 4.01 8.495 3 9 C2 6 1 3 0 0 Z " fill="#D6D6D6" transform="translate(15,13)"/>
</svg>
