<svg width="66" height="66" viewBox="0 0 66 66" fill="none" xmlns="http://www.w3.org/2000/svg">
<path fill-rule="evenodd" clip-rule="evenodd" d="M21.4877 54.4578H21.477C14.3265 54.4578 8.37047 50.9887 8.37047 43.8381C8.37047 36.6876 14.243 30.7316 21.477 30.7316L26.9102 30.736L34.5836 38.4157L34.5818 41.3504V41.3521L34.5836 46.7742L28.2638 53.0993C27.3971 53.9669 26.2211 54.4547 24.9946 54.4556L21.4877 54.4583V54.4578ZM8.32427 33.3117C11.0635 26.8058 17.501 22.2332 24.9986 22.2332L32.4943 22.2394L43.082 32.8355V45.9385L34.2464 54.7812C33.1247 55.9038 31.6032 56.5351 30.0159 56.5364H29.9946C30.3166 56.2961 30.6232 56.0313 30.9106 55.7435L37.7782 48.8701C38.1291 48.5192 38.3259 48.0434 38.3255 47.5471L38.3237 41.3513L38.3255 37.6423C38.3255 37.146 38.1287 36.6698 37.7782 36.3188L29.0092 27.5428C28.6587 27.1918 28.1829 26.9946 27.6871 26.9941L21.477 26.9892C16.159 26.9892 11.4131 29.4584 8.32427 33.3117ZM7.80672 26.876C11.5277 19.2469 19.3615 13.9857 28.4148 13.9857L37.9137 13.9933L51.3299 27.4202L51.3268 36.8999V36.9012L51.3294 45.4836L39.6658 57.1571C38.5441 58.2797 37.0225 58.9109 35.4352 58.9123H34.9834C35.6738 58.5022 36.3166 58.0042 36.8941 57.4267L46.277 48.0363C46.6275 47.6853 46.8248 47.21 46.8248 46.7137V32.0612C46.8248 31.5654 46.6275 31.0896 46.277 30.7387L34.5947 19.047C34.2442 18.6961 33.7684 18.4993 33.2726 18.4988L24.9995 18.4917C18.0213 18.4917 11.8036 21.7738 7.80717 26.8768L7.80672 26.876ZM5.03063 24.1008C8.68189 12.314 19.6761 3.74232 32.6569 3.74232L44.6436 3.75165L61.5728 20.6947L61.5689 32.6574V32.6587L61.5728 44.6213L47.9883 58.217C45.8466 60.3601 42.9416 61.5658 39.9119 61.568H39.8972C40.7808 61.1113 41.5969 60.5182 42.3126 59.8017L54.524 47.58C54.875 47.2291 55.0722 46.7533 55.0718 46.2571L55.0686 36.9004L55.0718 26.6463C55.0722 26.1501 54.8754 25.6743 54.524 25.3233L40.0132 10.8009C39.6627 10.45 39.1873 10.2523 38.6911 10.2523L28.4166 10.2439H28.4153C18.3398 10.2439 9.56327 15.8449 5.03108 24.1008H5.03063ZM32.6574 65.3156H32.6836L39.9146 65.3099C43.9363 65.3067 47.7924 63.7066 50.6351 60.8616L64.7679 46.7177C65.1184 46.3668 65.3156 45.891 65.3147 45.3948L65.3112 32.6578L65.3147 19.9209C65.3152 19.4246 65.1179 18.9488 64.7679 18.5979L46.7435 0.55886C46.3925 0.207906 45.9172 0.0102175 45.4214 0.0102175L32.6591 0H32.6578C14.633 0 0 14.6326 0 32.6574C0 35.461 0.354508 38.1829 1.02043 40.7804C4.63526 54.8803 17.4371 65.3152 32.6578 65.3152L32.6574 65.3156Z" fill="white"/>
<path fill-rule="evenodd" clip-rule="evenodd" d="M33.9794 17.7415L35.8843 14.8424L28.4139 14.8362C22.4814 14.8366 17.0927 17.1831 13.1261 20.9974C16.5809 18.8682 20.6476 17.6407 24.9985 17.6407L33.2721 17.6474C33.5129 17.6478 33.7506 17.6798 33.9789 17.7415H33.9794ZM28.3961 26.2382L30.4663 23.088L24.999 23.0836C19.9399 23.0836 15.3873 25.2684 12.2336 28.7446C14.9257 27.0916 18.0909 26.1387 21.4774 26.1387L27.6884 26.1436C27.9296 26.1436 28.1673 26.176 28.3961 26.2377V26.2382ZM39.3983 9.49591L42.6151 4.60077L32.6569 4.59277C22.8879 4.59277 14.2784 9.59453 9.25134 17.1747C14.2069 12.3591 20.9674 9.39329 28.4152 9.39329L38.6919 9.40173C38.9327 9.40217 39.1704 9.43416 39.3987 9.49591H39.3983Z" fill="white"/>
</svg>
