<svg width="161" height="40" viewBox="0 0 161 40" fill="none" xmlns="http://www.w3.org/2000/svg">
<path fill-rule="evenodd" clip-rule="evenodd" d="M19.9331 33.2308H19.9269C15.7664 33.2308 12.301 31.1935 12.301 26.9943C12.301 22.7951 15.7178 19.2973 19.9269 19.2973L23.0881 19.3L27.5528 23.8099L27.5517 25.5333V25.5344L27.5528 28.7185L23.8757 32.433C23.3714 32.9425 22.6872 33.229 21.9735 33.2295L19.9331 33.231V33.2308ZM12.2741 20.8126C13.8679 16.9919 17.6135 14.3066 21.9759 14.3066L26.3372 14.3102L32.4975 20.5329V28.2278L27.3566 33.4207C26.7039 34.08 25.8186 34.4507 24.8951 34.4515H24.8827C25.0701 34.3103 25.2484 34.1548 25.4157 33.9858L29.4115 29.9494C29.6157 29.7432 29.7302 29.4638 29.7299 29.1724L29.7289 25.5338L29.7299 23.3557C29.7299 23.0643 29.6154 22.7846 29.4115 22.5785L24.3094 17.4247C24.1055 17.2186 23.8286 17.1028 23.5402 17.1025L19.9269 17.0996C16.8326 17.0996 14.0713 18.5496 12.2741 20.8126ZM11.973 17.0331C14.138 12.5529 18.696 9.46323 23.9635 9.46323L29.4903 9.46767L37.2964 17.3527L37.2946 22.9198V22.9205L37.2961 27.9606L30.5098 34.8159C29.8571 35.4752 28.9718 35.8459 28.0483 35.8467H27.7854C28.1871 35.6059 28.5611 35.3134 28.8971 34.9743L34.3564 29.4597C34.5604 29.2536 34.6752 28.9744 34.6752 28.683V20.0782C34.6752 19.787 34.5604 19.5076 34.3564 19.3015L27.5592 12.4355C27.3553 12.2294 27.0785 12.1138 26.79 12.1136L21.9764 12.1094C17.9162 12.1094 14.2985 14.0368 11.9733 17.0336L11.973 17.0331ZM10.3578 15.4034C12.4822 8.48151 18.879 3.44771 26.4318 3.44771L33.406 3.45319L43.2561 13.4031L43.2538 20.4283V20.4291L43.2561 27.4542L35.3521 35.4384C34.106 36.6969 32.4158 37.405 30.653 37.4063H30.6444C31.1586 37.1381 31.6334 36.7898 32.0498 36.369L39.1548 29.1917C39.359 28.9856 39.4738 28.7062 39.4735 28.4148L39.4717 22.92L39.4735 16.8982C39.4738 16.6068 39.3593 16.3274 39.1548 16.1213L30.7119 7.59294C30.508 7.38684 30.2314 7.27074 29.9427 7.27074L23.9646 7.26578H23.9638C18.1015 7.26578 12.995 10.555 10.358 15.4034H10.3578ZM26.432 39.6071H26.4473L30.6545 39.6037C32.9945 39.6019 35.2381 38.6622 36.8921 36.9915L45.1151 28.6854C45.319 28.4793 45.4338 28.1998 45.4333 27.9084L45.4312 20.4286L45.4333 12.9487C45.4335 12.6573 45.3188 12.3779 45.1151 12.1718L34.6279 1.57819C34.4237 1.37209 34.1471 1.256 33.8586 1.256L26.4331 1.25H26.4323C15.9448 1.25 7.43076 9.84308 7.43076 20.4283C7.43076 22.0747 7.63702 23.6732 8.02448 25.1986C10.1277 33.4789 17.5763 39.6068 26.4323 39.6068L26.432 39.6071Z" fill="white"/>
<path fill-rule="evenodd" clip-rule="evenodd" d="M27.2012 11.6687L28.3096 9.9662L23.963 9.96255C20.5113 9.96281 17.3759 11.3408 15.068 13.5808C17.0782 12.3304 19.4443 11.6095 21.9758 11.6095L26.7897 11.6134C26.9298 11.6137 27.0681 11.6325 27.201 11.6687H27.2012ZM23.9527 16.6585L25.1572 14.8085L21.9761 14.8059C19.0325 14.8059 16.3836 16.089 14.5487 18.1304C16.1151 17.1596 17.9567 16.6 19.9271 16.6L23.5409 16.6029C23.6813 16.6029 23.8195 16.6219 23.9527 16.6582V16.6585ZM30.3541 6.82643L32.2258 3.95172L26.4317 3.94703C20.7478 3.94703 15.7385 6.88435 12.8135 11.3359C15.6969 8.50785 19.6304 6.76617 23.9638 6.76617L29.9432 6.77113C30.0833 6.77139 30.2215 6.79017 30.3544 6.82643H30.3541Z" fill="white"/>
<path d="M53.5229 7.03778H59.5679C60.857 7.03778 61.909 7.39154 62.7234 8.09933C63.7036 8.90286 64.2148 10.0492 64.2575 11.5383C64.2291 13.7277 63.2334 15.2168 61.2697 16.0058L64.8507 23.16H62.0677L58.8656 16.27H55.8655V23.16H53.5231V7.03778H53.5229ZM55.8652 14.1047H59.4185C60.2981 14.0901 60.9575 13.824 61.3974 13.3064C61.8301 12.8258 62.0465 12.2344 62.0465 11.5323C62.0323 10.6899 61.7735 10.08 61.2697 9.703C60.8725 9.37037 60.2981 9.20392 59.5462 9.20392H55.8652V14.1047Z" fill="white"/>
<path d="M67.2065 7.03778H77.0904V9.33671H69.5491V13.95H75.9865V16.1153H69.5491V20.8611H77.0904V23.16H67.2065V7.03778Z" fill="white"/>
<path d="M90.1211 18.6558C89.7812 20.1499 89.1337 21.2981 88.1784 22.1003C87.1946 22.8952 86.0304 23.2926 84.6858 23.2926C83.4694 23.2631 82.4546 22.9537 81.6415 22.3638C80.8141 21.7961 80.2128 21.1403 79.8383 20.3954C79.7251 20.1523 79.6225 19.9198 79.5307 19.6989C79.4457 19.4703 79.3749 19.1828 79.3185 18.8364C79.2123 18.1878 79.1595 16.9418 79.1595 15.0989C79.1595 13.256 79.2125 11.9732 79.3188 11.3393C79.432 10.7053 79.6052 10.1929 79.8386 9.80213C80.2134 9.05756 80.8148 8.39412 81.6427 7.81183C82.4562 7.22222 83.4715 6.91985 84.6884 6.90498C86.1811 6.91985 87.3978 7.3798 88.3389 8.28507C89.2797 9.19792 89.874 10.3276 90.1216 11.6745H87.6348C87.4435 11.0244 87.0961 10.4705 86.5931 10.0124C86.0687 9.57672 85.4313 9.35132 84.6801 9.33645C84.1275 9.35132 83.6527 9.46559 83.2559 9.68003C82.8519 9.90179 82.526 10.1786 82.2781 10.511C81.9733 10.8582 81.7715 11.3051 81.6722 11.8519C81.559 12.4282 81.5021 13.5104 81.5021 15.0986C81.5021 16.6869 81.5587 17.7618 81.6722 18.3232C81.7712 18.8846 81.9733 19.3391 82.2781 19.6863C82.5262 20.0187 82.8522 20.2885 83.2564 20.4953C83.6532 20.739 84.1283 20.8609 84.6812 20.8609C85.9997 20.8609 86.985 20.1259 87.6371 18.6556H90.1214L90.1211 18.6558Z" fill="white"/>
<path d="M91.8787 7.03778H94.2211V17.4412C94.235 18.5405 94.5398 19.378 95.135 19.9532C95.7161 20.5582 96.4634 20.8609 97.3773 20.8609C98.2913 20.8609 99.0456 20.5582 99.6408 19.9532C100.222 19.378 100.519 18.5405 100.534 17.4412V7.03778H102.876V17.6976C102.848 19.3934 102.32 20.7385 101.294 21.7338C100.261 22.7585 98.9554 23.278 97.3773 23.2928C95.8275 23.278 94.5323 22.7591 93.4922 21.7353C92.4306 20.7414 91.8927 19.3975 91.8785 17.7039V7.03778H91.8787Z" fill="white"/>
<path d="M106.296 7.03778H112.341C113.63 7.03778 114.682 7.39154 115.497 8.09933C116.477 8.90286 116.988 10.0492 117.031 11.5383C117.003 13.7277 116.007 15.2168 114.043 16.0058L117.624 23.16H114.841L111.639 16.27H108.639V23.16H106.297V7.03778H106.296ZM108.639 14.1047H112.192C113.072 14.0901 113.731 13.824 114.171 13.3064C114.604 12.8258 114.82 12.2344 114.82 11.5323C114.806 10.6899 114.547 10.08 114.043 9.703C113.646 9.37037 113.072 9.20392 112.32 9.20392H108.639V14.1047Z" fill="white"/>
<path d="M120.172 19.254C121.403 20.3106 122.869 20.8462 124.568 20.8608C126.579 20.8314 127.599 20.0826 127.627 18.6144C127.641 17.4119 126.969 16.6888 125.61 16.4451C124.988 16.3566 124.305 16.257 123.562 16.1461C122.231 15.9176 121.219 15.4047 120.526 14.6079C119.811 13.789 119.454 12.7929 119.454 11.6197C119.454 10.2104 119.903 9.07426 120.8 8.21098C121.67 7.35501 122.903 6.91985 124.501 6.90498C126.423 6.94933 128.095 7.50424 129.516 8.57048L128.21 10.5777C127.049 9.77995 125.771 9.36645 124.376 9.33671C123.655 9.33671 123.053 9.52481 122.572 9.90127C122.069 10.2923 121.811 10.8752 121.796 11.65C121.796 12.1146 121.97 12.5352 122.316 12.9116C122.663 13.2954 123.219 13.561 123.983 13.7084C124.407 13.7822 124.988 13.867 125.724 13.963C127.174 14.1696 128.246 14.712 128.94 15.5899C129.626 16.4532 129.969 17.4568 129.969 18.6003C129.891 21.6845 128.082 23.2487 124.54 23.2928C122.25 23.2928 120.281 22.5595 118.634 21.0923L120.171 19.2543L120.172 19.254Z" fill="white"/>
<path d="M132.853 7.03778H135.195V23.16H132.853V7.03778Z" fill="white"/>
<path d="M137.027 7.03778H139.507L143.014 19.3188H143.057L146.575 7.03778H149.054L143.947 23.16H142.124L137.027 7.03778Z" fill="white"/>
<path d="M151.116 7.03778H161V9.33671H153.459V13.95H159.896V16.1153H153.459V20.8611H161V23.16H151.116V7.03778Z" fill="white"/>
<path d="M53.7925 33.2018C54.3604 33.6138 55.0363 33.8228 55.8197 33.8285C56.7469 33.817 57.2168 33.5251 57.23 32.9524C57.2367 32.4836 56.9268 32.2016 56.3002 32.1066C56.0131 32.0722 55.6983 32.0333 55.3558 31.99C54.7424 31.9008 54.2758 31.701 53.9561 31.3902C53.6265 31.0709 53.4619 30.6825 53.4619 30.2251C53.4619 29.6757 53.6689 29.2325 54.0828 28.8959C54.4837 28.5622 55.0523 28.3924 55.7887 28.3867C56.675 28.4039 57.4458 28.6204 58.1008 29.036L57.4988 29.8187C56.9635 29.5077 56.3744 29.3462 55.7316 29.3347C55.3987 29.3347 55.1213 29.408 54.8993 29.5549C54.6677 29.7075 54.5483 29.9348 54.5418 30.2369C54.5418 30.4182 54.6217 30.582 54.7817 30.7289C54.9417 30.8786 55.1976 30.982 55.5501 31.0396C55.7458 31.0683 56.0133 31.1014 56.3527 31.1387C57.0217 31.2194 57.5159 31.4307 57.8356 31.7732C58.152 32.1098 58.3104 32.5011 58.3104 32.947C58.2745 34.1496 57.4401 34.7596 55.8073 34.7768C54.7512 34.7768 53.8437 34.4909 53.0843 33.9188L53.793 33.2021L53.7925 33.2018Z" fill="white"/>
<path d="M66.6259 33.3187H63.9204L63.3724 34.7249H62.2276L64.8207 28.4383H65.7256L68.3184 34.7249H67.1785L66.6256 33.3187H66.6259ZM66.3175 32.4745L65.2852 29.7243H65.2655L64.2332 32.4745H66.3173H66.3175Z" fill="white"/>
<path d="M72.6102 28.4381H77.1672V29.3345H73.6902V31.1938H76.6583V32.038H73.6902V34.7246H72.6102V28.4381Z" fill="white"/>
<path d="M81.4977 28.4381H86.0547V29.3345H82.5776V31.1333H85.5457V31.9775H82.5776V33.8282H86.0547V34.7246H81.4977V28.4381Z" fill="white"/>
<path d="M92.8949 31.2671H95.4305V32.546C95.4173 33.1747 95.1728 33.7015 94.697 34.1264C94.2177 34.5486 93.6145 34.7651 92.8876 34.7766C92.327 34.7651 91.8591 34.6443 91.4841 34.4145C91.1026 34.1932 90.8255 33.9373 90.6526 33.6469C90.6003 33.552 90.553 33.4614 90.5109 33.3753C90.4719 33.2864 90.439 33.1742 90.4129 33.0391C90.3641 32.7863 90.3395 32.3002 90.3395 31.5817C90.3395 30.8633 90.3638 30.3629 90.4129 30.1158C90.4652 29.8685 90.545 29.6689 90.6526 29.5166C90.8252 29.2262 91.1023 28.9677 91.4841 28.7404C91.8589 28.5106 92.3267 28.3927 92.8876 28.3869C93.5754 28.3927 94.1363 28.5724 94.5698 28.9259C95.0033 29.2823 95.2772 29.7235 95.3912 30.2494H94.2454C94.1573 29.9953 93.9973 29.7785 93.7654 29.5995C93.5237 29.4292 93.2298 29.341 92.884 29.3353C92.6294 29.341 92.4107 29.3856 92.2277 29.4691C92.0416 29.5554 91.8914 29.6635 91.7772 29.7931C91.6366 29.9285 91.5435 30.1028 91.498 30.3159C91.4458 30.5405 91.4197 30.9627 91.4197 31.582C91.4197 32.2014 91.4458 32.6206 91.498 32.8395C91.5438 33.0584 91.6368 33.2355 91.7775 33.3709C91.8917 33.5006 92.0421 33.6057 92.2282 33.6863C92.4112 33.7813 92.6302 33.8288 92.885 33.8288C93.3066 33.8288 93.6545 33.702 93.929 33.4481C94.2035 33.206 94.3439 32.8872 94.3506 32.4922V32.1635H92.8951V31.2674L92.8949 31.2671Z" fill="white"/>
<path d="M100.091 28.4381H101.171V32.4949C101.177 32.9235 101.318 33.2501 101.592 33.4745C101.86 33.7103 102.205 33.8285 102.626 33.8285C103.047 33.8285 103.395 33.7106 103.67 33.4745C103.938 33.2501 104.075 32.9235 104.081 32.4949V28.4381H105.161V32.5948C105.148 33.2559 104.905 33.7805 104.432 34.1687C103.956 34.5684 103.354 34.7708 102.626 34.7766C101.911 34.7708 101.314 34.5684 100.835 34.1692C100.345 33.7815 100.097 33.2577 100.091 32.5971V28.4381Z" fill="white"/>
<path d="M113.466 33.3187H110.761L110.213 34.7249H109.068L111.661 28.4383H112.566L115.159 34.7249H114.019L113.466 33.3187H113.466ZM113.158 32.4745L112.126 29.7243H112.106L111.074 32.4745H113.158H113.158Z" fill="white"/>
<path d="M119.451 28.4381H122.238C122.832 28.4381 123.317 28.5761 123.693 28.8521C124.144 29.1654 124.38 29.6126 124.4 30.193C124.387 31.0467 123.927 31.6274 123.022 31.935L124.673 34.7246H123.39L121.914 32.038H120.531V34.7246H119.451V28.4381H119.451ZM120.531 31.1938H122.169C122.575 31.1881 122.879 31.0842 123.081 30.8826C123.281 30.6953 123.381 30.4646 123.381 30.1907C123.374 29.8622 123.255 29.6243 123.023 29.4774C122.84 29.3478 122.575 29.2828 122.228 29.2828H120.531V31.1938H120.531Z" fill="white"/>
<path d="M129.091 28.4381H131.587C132.553 28.4438 133.277 28.7973 133.76 29.4988C133.933 29.7347 134.042 29.9817 134.088 30.2405C134.123 30.4993 134.141 30.9462 134.141 31.5815C134.141 32.2569 134.114 32.7283 134.058 32.9958C134.032 33.1309 133.993 33.2517 133.941 33.3579C133.885 33.4614 133.818 33.5692 133.74 33.6814C133.531 33.9775 133.241 34.2219 132.869 34.4145C132.5 34.6213 132.049 34.7249 131.514 34.7249H129.091V28.4383L129.091 28.4381ZM130.171 33.8282H131.464C132.071 33.8282 132.512 33.6454 132.787 33.2796C132.908 33.1442 132.984 32.9728 133.017 32.7654C133.046 32.5609 133.061 32.1779 133.061 31.6159C133.061 31.054 133.046 30.677 133.017 30.4406C132.978 30.2045 132.885 30.0128 132.738 29.8659C132.437 29.5001 132.013 29.323 131.464 29.3345H130.171V33.8282Z" fill="white"/>
<path d="M138.938 28.4381H140.018V34.7246H138.938V28.4381Z" fill="white"/>
<path d="M144.936 28.4381H145.954L149.184 32.9073H149.204V28.4381H150.284V34.7246H149.261L146.035 30.2554H146.016V34.7246H144.936V28.4381Z" fill="white"/>
<path d="M157.656 31.2671H160.192V32.546C160.179 33.1747 159.934 33.7015 159.458 34.1264C158.979 34.5486 158.376 34.7651 157.649 34.7766C157.088 34.7651 156.621 34.6443 156.246 34.4145C155.864 34.1932 155.587 33.9373 155.414 33.6469C155.362 33.552 155.315 33.4614 155.272 33.3753C155.233 33.2864 155.201 33.1742 155.174 33.0391C155.126 32.7863 155.101 32.3002 155.101 31.5817C155.101 30.8633 155.125 30.3629 155.174 30.1158C155.227 29.8685 155.306 29.6689 155.414 29.5166C155.587 29.2262 155.864 28.9677 156.246 28.7404C156.62 28.5106 157.088 28.3927 157.649 28.3869C158.337 28.3927 158.898 28.5724 159.331 28.9259C159.765 29.2823 160.039 29.7235 160.153 30.2494H159.007C158.919 29.9953 158.759 29.7785 158.527 29.5995C158.285 29.4292 157.991 29.341 157.645 29.3353C157.391 29.341 157.172 29.3856 156.989 29.4691C156.803 29.5554 156.653 29.6635 156.539 29.7931C156.398 29.9285 156.305 30.1028 156.26 30.3159C156.207 30.5405 156.181 30.9627 156.181 31.582C156.181 32.2014 156.207 32.6206 156.26 32.8395C156.305 33.0584 156.398 33.2355 156.539 33.3709C156.653 33.5006 156.804 33.6057 156.99 33.6863C157.173 33.7813 157.392 33.8288 157.647 33.8288C158.068 33.8288 158.416 33.702 158.691 33.4481C158.965 33.206 159.105 32.8872 159.112 32.4922V32.1635H157.657V31.2674L157.656 31.2671Z" fill="white"/>
</svg>
